PathFileType	4	(X/Y/Z)	C:\Users\italobelli\Desktop\GitHub\PTbot_officialCBL\Personal_Results\FLX22_noisy2.trc
DataRate	CameraRate	NumFrames	NumMarkers	Units	OrigDataRate	OrigDataStartFrame	OrigNumFrames
106.125000	106.125000	21	9	m	106.125000	319	850
Frame#	Time		gu		centelbow		EpL		centpxt8		centijc7		ij		ts		aa		ai
			X1	Y1	Z1	X2	Y2	Z2	X3	Y3	Z3	X4	Y4	Z4	X5	Y5	Z5	X6	Y6	Z6	X7	Y7	Z7	X8	Y8	Z8	X9	Y9	Z9

319	2.9965	-0.089737	0.056483	0.11063	0.072062	0.20991	0.21765	0.048733	0.23094	0.21034	-0.046816	-0.15316	-0.008669	-0.046816	0.031938	-0.008669	0	0	0	-0.14949	-0.014934	0.057514	-0.11418	0.077937	0.12353	-0.1221	-0.08121	0.14554
320	3.0059	-0.089981	0.05651	0.11048	0.070778	0.21111	0.21726	0.047332	0.23193	0.20981	-0.046816	-0.15316	-0.008669	-0.046816	0.031938	-0.008669	0	0	0	-0.14935	-0.015146	0.057504	-0.11449	0.077978	0.12328	-0.12185	-0.081081	0.14567
321	3.0153	-0.090223	0.056535	0.11033	0.069492	0.21229	0.21689	0.045933	0.2329	0.20929	-0.046816	-0.15316	-0.008669	-0.046816	0.031938	-0.008669	0	0	0	-0.1492	-0.015356	0.057489	-0.1148	0.078017	0.12304	-0.1216	-0.080955	0.14581
322	3.0247	-0.090463	0.056558	0.11019	0.068202	0.21345	0.21651	0.044532	0.23386	0.20878	-0.046816	-0.15316	-0.008669	-0.046816	0.031938	-0.008669	0	0	0	-0.14905	-0.015565	0.057467	-0.11512	0.078055	0.1228	-0.12134	-0.080831	0.14593
323	3.0342	-0.090702	0.056579	0.11006	0.066908	0.21458	0.21615	0.043131	0.2348	0.20827	-0.046816	-0.15316	-0.008669	-0.046816	0.031938	-0.008669	0	0	0	-0.14889	-0.015772	0.057439	-0.11543	0.078093	0.12256	-0.12108	-0.08071	0.14606
324	3.0436	-0.09094	0.056598	0.10992	0.065612	0.2157	0.21578	0.041729	0.23572	0.20777	-0.046816	-0.15316	-0.008669	-0.046816	0.031938	-0.008669	0	0	0	-0.14872	-0.015978	0.057406	-0.11575	0.07813	0.12233	-0.12081	-0.080592	0.14618
325	3.053	-0.091176	0.056616	0.10979	0.064312	0.2168	0.21542	0.040328	0.23663	0.20728	-0.046816	-0.15316	-0.008669	-0.046816	0.031938	-0.008669	0	0	0	-0.14855	-0.016182	0.057367	-0.11606	0.078166	0.1221	-0.12055	-0.080476	0.1463
326	3.0624	-0.091411	0.056632	0.10967	0.063011	0.21788	0.21507	0.038927	0.23752	0.20679	-0.046816	-0.15316	-0.008669	-0.046816	0.031938	-0.008669	0	0	0	-0.14837	-0.016385	0.057323	-0.11638	0.078201	0.12187	-0.12028	-0.080363	0.14641
327	3.0718	-0.091644	0.056647	0.10954	0.061707	0.21894	0.21471	0.037527	0.2384	0.20631	-0.046816	-0.15316	-0.008669	-0.046816	0.031938	-0.008669	0	0	0	-0.14819	-0.016586	0.057274	-0.1167	0.078236	0.12165	-0.12001	-0.080252	0.14652
328	3.0813	-0.091876	0.05666	0.10943	0.060402	0.21998	0.21436	0.036128	0.23927	0.20583	-0.046816	-0.15316	-0.008669	-0.046816	0.031938	-0.008669	0	0	0	-0.148	-0.016785	0.05722	-0.11702	0.07827	0.12142	-0.11974	-0.080143	0.14663
329	3.0907	-0.092107	0.056672	0.10931	0.059096	0.22101	0.21402	0.034731	0.24012	0.20536	-0.046816	-0.15316	-0.008669	-0.046816	0.031938	-0.008669	0	0	0	-0.1478	-0.016983	0.057162	-0.11734	0.078304	0.12121	-0.11947	-0.080036	0.14674
330	3.1001	-0.092337	0.056683	0.1092	0.05779	0.22201	0.21368	0.033336	0.24095	0.2049	-0.046816	-0.15316	-0.008669	-0.046816	0.031938	-0.008669	0	0	0	-0.1476	-0.017179	0.057099	-0.11767	0.078337	0.12099	-0.1192	-0.079931	0.14684
331	3.1095	-0.092566	0.056692	0.10909	0.056483	0.223	0.21334	0.031943	0.24177	0.20444	-0.046816	-0.15316	-0.008669	-0.046816	0.031938	-0.008669	0	0	0	-0.1474	-0.017373	0.057032	-0.11799	0.078369	0.12078	-0.11893	-0.079828	0.14694
332	3.119	-0.092793	0.056701	0.10898	0.055176	0.22397	0.21301	0.030553	0.24258	0.20399	-0.046816	-0.15316	-0.008669	-0.046816	0.031938	-0.008669	0	0	0	-0.14719	-0.017565	0.056961	-0.11832	0.078401	0.12057	-0.11866	-0.079726	0.14703
333	3.1284	-0.093019	0.056709	0.10888	0.05387	0.22493	0.21268	0.029166	0.24337	0.20355	-0.046816	-0.15316	-0.008669	-0.046816	0.031938	-0.008669	0	0	0	-0.14698	-0.017755	0.056887	-0.11864	0.078432	0.12037	-0.11839	-0.079627	0.14713
334	3.1378	-0.093245	0.056716	0.10877	0.052566	0.22586	0.21235	0.027782	0.24415	0.2031	-0.046816	-0.15316	-0.008669	-0.046816	0.031938	-0.008669	0	0	0	-0.14677	-0.017944	0.056809	-0.11897	0.078462	0.12017	-0.11811	-0.079529	0.14722
335	3.1472	-0.093469	0.056722	0.10867	0.051262	0.22678	0.21203	0.026403	0.24491	0.20267	-0.046816	-0.15316	-0.008669	-0.046816	0.031938	-0.008669	0	0	0	-0.14655	-0.01813	0.056728	-0.11929	0.078492	0.11997	-0.11784	-0.079433	0.14731
336	3.1567	-0.093692	0.056727	0.10858	0.04996	0.22768	0.21171	0.025028	0.24566	0.20224	-0.046816	-0.15316	-0.008669	-0.046816	0.031938	-0.008669	0	0	0	-0.14633	-0.018315	0.056643	-0.11962	0.078521	0.11977	-0.11757	-0.079338	0.14739
337	3.1661	-0.093914	0.056732	0.10848	0.048661	0.22857	0.21139	0.023657	0.2464	0.20181	-0.046816	-0.15316	-0.008669	-0.046816	0.031938	-0.008669	0	0	0	-0.14611	-0.018497	0.056557	-0.11995	0.07855	0.11958	-0.1173	-0.079245	0.14748
338	3.1755	-0.094135	0.056736	0.10839	0.047364	0.22943	0.21108	0.022292	0.24712	0.2014	-0.046816	-0.15316	-0.008669	-0.046816	0.031938	-0.008669	0	0	0	-0.14589	-0.018677	0.056467	-0.12028	0.078578	0.11939	-0.11704	-0.079152	0.14756
339	3.1849	-0.094356	0.05674	0.1083	0.046071	0.23028	0.21077	0.020931	0.24783	0.20098	-0.046816	-0.15316	-0.008669	-0.046816	0.031938	-0.008669	0	0	0	-0.14566	-0.018855	0.056375	-0.1206	0.078606	0.1192	-0.11677	-0.079061	0.14764
